<?xml version="1.0" encoding="iso-8859-1"?>
<svg version="1.1" id="Capa_1" xmlns="http://www.w3.org/2000/svg" xmlns:xlink="http://www.w3.org/1999/xlink" x="0px" y="0px"
	 viewBox="143 372.156 50 50" style="enable-background:new 143 372.156 50 50;" xml:space="preserve">
<path style="fill:none;stroke:#333333;stroke-miterlimit:10;" d="M175.779,375.157c-2.433-0.861-5.05-1.334-7.779-1.334
	c-2.695,0-5.28,0.463-7.687,1.303c-9.109,3.178-15.646,11.838-15.646,22.03c0,10.193,6.537,18.853,15.646,22.031
	c2.408,0.84,4.993,1.302,7.687,1.302h0.005c2.727,0,5.343-0.473,7.774-1.333v-0.001c9.062-3.204,15.554-11.841,15.554-22
	C191.333,386.999,184.841,378.36,175.779,375.157z"/>
<g>
	<g id="XMLID_1_">
		<g>
			<path style="fill:#E61E25;" d="M175.779,375.157v7.55v28.901v7.549c9.062-3.204,15.554-11.841,15.554-22
				C191.333,386.999,184.841,378.36,175.779,375.157z"/>
			<path style="fill:#F3F4F5;" d="M168,373.823c-2.695,0-5.28,0.463-7.687,1.303v44.061c2.408,0.84,4.993,1.302,7.687,1.302h0.005
				c2.727,0,5.343-0.473,7.774-1.333v-0.001v-7.549v-28.901v-7.55C173.346,374.296,170.729,373.823,168,373.823z"/>
			<path style="fill:#3757A6;" d="M160.313,375.126v44.061c-9.109-3.178-15.646-11.838-15.646-22.031
				C144.667,386.964,151.203,378.304,160.313,375.126z"/>
		</g>
	</g>
</g>
</svg>
