<svg version="1.2" xmlns="http://www.w3.org/2000/svg" viewBox="0 0 465 670" width="40" height="58">
	<title>svg</title>
	<defs>
		<clipPath clipPathUnits="userSpaceOnUse" id="cp1">
			<path d="m12.84 2.32h439.6v514.84h-439.6z"/>
		</clipPath>
		<clipPath clipPathUnits="userSpaceOnUse" id="cp2">
			<path d="m12.84 2.32h439.6v514.84h-439.6z"/>
		</clipPath>
	</defs>
	<style>
		.s0 { fill: #0d5097 } 
		.s1 { fill: #ffffff } 
	</style>
	<path id="Layer" class="s0" d="m233.1 5.3c-0.2 0-0.3 0-0.5 0-0.1 0-0.2 0-0.4 0-120.1 0-217.1 97.3-217.1 217.3 5 114 38.1 220.6 187.4 426.6 9.7 13.1 18.3 17.4 29.9 17.4 0.1 0 0.1-0.1 0.2-0.1 0.1 0 0.2 0.1 0.3 0.1 11.6 0 20.1-4.3 29.9-17.4 149.4-206 182.3-312.6 187.4-426.6 0-120-97.1-217.3-217.1-217.3z"/>
	<g id="Clip-Path" clip-path="url(#cp1)">
		<g id="Layer">
			<g id="Clip-Path" clip-path="url(#cp2)">
				<g id="Layer">
					<path id="Layer" class="s1" d="m173.7 383.8c1.4 4.7 2.5 10.8 2.5 16.5 0 13.7-6.1 22.2-17.9 22.2-8.9 0-13.1-4.1-13.1-13.3v-25.4h8.9v23.6c0 4.5 0.3 8.1 5.1 8.1 6.3 0 8.2-7.4 8.2-14.6 0-6.3-1.3-12.3-2.5-17.1 0 0 8.8 0 8.8 0z"/>
					<path id="Layer" class="s1" d="m188.6 368.1c3.1 0 5.2 2.2 5.2 5 0 2.7-2.2 4.9-5.2 4.9-3.1 0-5.2-2.1-5.2-4.9 0-2.9 2.1-5 5.2-5zm-4.4 15.7h8.9v37.6h-8.9z"/>
					<path id="Layer" fill-rule="evenodd" class="s1" d="m233.1 414.3l0.6 7.1h-7.7l-0.5-3.9-0.3-0.1c-2.3 3.4-6.1 5-10.2 5-10.6 0-14.7-7.5-14.7-18.1 0-13.2 6.6-21.6 19.5-21.6 2.4 0 7.9 0.6 13.3 2.7zm-8.8-24.1c-1.2-0.5-3.3-1-5.7-1-7.1 0-9.4 6.7-9.4 14.7 0 6.2 1.5 12.2 7.7 12.2 4.7 0 7.4-3.3 7.4-6.5 0 0 0-19.4 0-19.4z"/>
					<path id="Layer" class="s1" d="m242.6 383.8h8.9v40.2c0 7.2-1.4 14.2-12 14.2-3.1 0-6.9-1-9.6-2.6l2.7-6.2c1.8 0.9 3.6 1.5 5.5 1.5 2.9 0 4.5-1.6 4.5-6.6zm4.6-15.7c3 0 5.2 2.2 5.2 5 0 2.8-2.2 4.9-5.3 4.9-3 0-5-2.1-5-4.9 0-2.9 2-5 5.1-5"/>
					<path id="Layer" fill-rule="evenodd" class="s1" d="m288.8 393.1c0 11.5-14.3 13-21.1 13.1 0.3 4.8 3 9.6 9.4 9.6 4.4 0 7.6-2.1 9.4-3.3l2.8 5.9c-1.2 1-6.1 4.2-13.2 4.2-12.3 0-17.4-8-17.4-19.2 0-11.2 6.4-20.7 18.3-20.7 7.3 0 11.8 3.8 11.8 10.4zm-12.4-4c-6 0-8.8 5.8-9 11.3 4 0.1 13.5-1.2 13.5-6.9 0-2.8-1.8-4.4-4.5-4.4z"/>
					<path id="Layer" class="s1" d="m294.6 412.4c2.4 1.6 6.9 3.6 10.7 3.6 3.1 0 5.6-1.4 5.6-4.8 0-3.4-2.8-4.4-6.3-5.5-5.5-1.5-11.6-3.3-11.6-11.1 0-7.8 6.4-11.9 13.7-11.9 5.6 0 10.5 2.3 13.5 5.3l-4.2 5.3c-2.9-2.5-6-4.1-9.2-4.1-2.6 0-5.2 1.4-5.2 4.4 0 3.4 3.2 4.4 6.7 5.4 5.4 1.7 11.5 3.9 11.5 11.6 0 7.7-5.8 11.9-14.2 11.9-6.4 0-11.7-2.3-13.6-3.8 0 0 2.6-6.3 2.6-6.3z"/>
					<path id="Layer" class="s1" d="m181.5 107.2c0.4-0.5 0.8-0.7 1.2-0.7 0.6 0 1.1 0.6 1.1 1.3 0 0.4-0.2 0.9-0.6 1.3-16.1 20-27.8 43.3-27.8 75.7 0 32.4 11.7 55.3 27.8 75.2 0.4 0.4 0.6 0.9 0.6 1.3 0 0.7-0.5 1.3-1.1 1.3-0.4 0-0.8-0.2-1.2-0.7l-68.5-66.2c-3.4-2.9-5.6-6.3-5.6-11.2 0-4.8 2.2-8.2 5.6-11.1l68.5-66.3z"/>
					<path id="Layer" class="s1" d="m234.1 101.6c-26.8 0-37.3 37.9-37.3 83.2 0 45.3 10.5 82.8 37.3 82.8 16.1 0 29.8-9.5 29.8-17.2 0-1.7-0.6-3.3-2-4.7-7.6-7.4-10.6-14.8-10.7-21.3 0-12.4 10.8-21.6 20.7-21.6 13.6 0 21.6 10.7 21.6 24.6 0 13.1-5.6 24.1-11.7 32.9q-0.3 0.5-0.3 1.1c0 0.7 0.4 1.2 1 1.2 0.4 0 0.8-0.2 1.3-0.7l68.4-66.1c3.5-3 5.6-6.4 5.6-11.2 0-4.9-2.1-8.3-5.6-11.2l-68.4-66.3q-0.7-0.6-1.3-0.6c-0.6 0-1 0.5-1 1.2 0 0.4 0.1 0.8 0.3 1.2 6.1 8.7 11.7 19.7 11.7 32.8 0 13.9-8 24.6-21.6 24.6-9.9 0-20.7-9.2-20.7-21.6 0.1-6.5 3.1-13.9 10.7-21.2 1.4-1.5 2-3.1 2-4.8 0-7.7-13.7-17.2-29.8-17.2"/>
					<path id="Layer" fill-rule="evenodd" class="s1" d="m83.4 346.5c-4.4-4.5-7.2-10.9-7.1-19 0-7.7 2.7-14.2 6.9-18.8 4.3-4.6 10.1-7.3 16.2-7.3 10.9 0.1 18.7 7.7 18.7 14.4 0 3.5-2.2 6.2-5.3 6.2-1.5 0-2.9-0.5-3.9-1.4-1-1-1.7-2.4-1.7-4.2 0-2 1.1-3.3 1.9-4.2-1.5-2.5-4.3-4.5-8.8-4.6-3.8 0-7 2-9.3 5.5-2.3 3.5-3.6 8.4-3.6 14.3 0 5.9 1.4 10.8 3.7 14.3 2.4 3.5 5.7 5.4 9.5 5.4 4.4 0 7.3-2 8.7-4.5-0.8-0.9-1.8-2.2-1.8-4.2 0-1.8 0.6-3.2 1.6-4.2 1.1-0.9 2.5-1.4 4-1.4 3 0 5.2 2.7 5.3 6.2-0.1 6.7-7.8 14.3-18.8 14.3-6 0-11.9-2.4-16.2-6.8m135.2-11.6c0-5.6 1.8-10.5 5-13.9 3.3-3.4 7.9-5.4 13.3-5.4 5 0 8.7 1.8 11.1 4.4 2.4 2.7 3.5 6.1 3.5 9.2 0 1.9-0.4 3.6-1.2 5.1l-0.1 0.2h-22.2c0.4 6.4 4.5 10.9 11.7 11 4.4 0 7.8-2.4 8.9-3.9l0.2-0.3 0.3 0.2c0.7 0.5 1.4 1.3 1.4 3-0.1 3.7-4.4 8.4-14.1 8.4-9.8 0-17.8-7.8-17.8-18zm-95.5 6.5c0-3.6 1.6-6.5 4.2-8.4 2.7-1.9 6.3-2.9 10.6-2.9 2.7 0 5.4 0.4 7.3 1.3v-4c-0.1-4-1.6-6.3-6.1-6.3-0.8 0-2.7 0.2-4.3 0.7 0.2 0.6 0.3 1.2 0.3 1.7 0 1.4-0.4 2.6-1.3 3.5-0.8 0.9-2 1.5-3.4 1.5-2.6 0-4.6-2.1-4.6-4.8 0.1-4.8 6-8.1 13.9-8.1 6.2 0 10.2 1.5 12.3 4.2 1.9 2.4 2 5.9 2 10.9v13c0 2.5 1.4 3.2 4.6 3.7l0.3 0.1v0.3c-0.2 3.5-2.7 4.9-5.4 5.1q-0.3 0-0.7 0c-2.7 0-5.2-1.3-6.5-3.9-1.6 1.4-5.4 4-10.3 4-7.3 0-12.8-4.9-12.8-11.6zm174 11.5c-5 0-9.5-1.9-12.8-5.2-3.3-3.3-5.4-8-5.4-13.5 0-11.1 8.7-18.6 18.5-18.6 5.3 0 9.9 1.9 13.2 5.1 3.2 3.3 5.1 8 5.1 13.5 0 5.5-2 10.2-5.3 13.5-3.3 3.3-8 5.2-13.3 5.2zm-132.2-1.1c-1.6-0.5-2.5-1.3-2.5-2.6q0-0.7 0.4-1.6v-0.2h0.2c0.6-0.1 1.6-0.4 2.5-1.1 0.9-0.7 1.3-1.8 1.3-4.7v-14.9c-0.1-2.5-0.7-3.4-2.8-3.5q-0.7 0-1.6 0.2h-0.4l-0.1-0.3q-0.3-0.8-0.3-1.6c0-2.9 3.3-4.5 5.5-5.1q1.3-0.4 2.4-0.4c3 0 4.7 2.1 5.3 4.8 2-3.2 5.1-5.3 8.2-5.3 2.8 0 5.7 1.9 5.8 5.5-0.1 2.5-1.8 5.2-4.9 5.2-2.2 0-4.1-1.5-4.5-3.6-1.7 0.5-4.1 2.6-4.2 10v9c0 2.9 0.5 4 1.4 4.7 0.8 0.7 2.5 1 3.2 1.1h0.2l0.1 0.2q0.4 1 0.4 1.8c0 1.2-0.9 2-2.3 2.4-1.5 0.4-3.7 0.6-6.6 0.6-2.9 0-5.2-0.2-6.7-0.6zm29.7 0c-1.5-0.5-2.5-1.3-2.5-2.6q0-0.7 0.4-1.6l0.1-0.2h0.2c0.6-0.1 1.6-0.4 2.5-1.1 0.8-0.7 1.2-1.8 1.2-4.7v-14.9c0-2.5-0.6-3.4-2.7-3.5q-0.7 0-1.7 0.2h-0.3l-0.1-0.3q-0.4-0.8-0.4-1.6c0.1-2.9 3.4-4.5 5.6-5.1q1.3-0.4 2.4-0.4c3 0 4.6 2.1 5.3 4.8 2-3.2 5.1-5.3 8.1-5.3 2.9 0 5.8 1.9 5.8 5.5 0 2.5-1.8 5.2-4.8 5.2-2.2 0-4.1-1.5-4.6-3.7-1.7 0.6-4.1 2.7-4.1 10.1v9c0 2.9 0.4 4 1.3 4.7 0.8 0.6 2.6 1 3.2 1.1h0.2l0.1 0.2q0.5 1 0.5 1.7c0 1.2-0.9 2.1-2.4 2.5-1.5 0.4-3.6 0.6-6.5 0.6-2.9 0-5.2-0.2-6.8-0.6zm63 0c-1.5-0.5-2.5-1.3-2.5-2.6q0-0.7 0.4-1.6l0.1-0.2h0.2c0.6-0.1 1.6-0.4 2.4-1.1 0.9-0.7 1.3-1.8 1.3-4.8v-19.5l-5.2-0.2-0.1-0.3q-0.4-0.9-0.4-1.8c0-1.9 1.4-3.2 3.3-3.2h2.3v-2.1c0-5.3 1-8.3 2.3-10.3 2-3.1 5.6-5.3 11-5.3 6.9 0 12.6 3.2 12.6 8.2 0 2.2-1.5 5-4.7 5-2.4 0-4.7-2-4.7-4.6 0-0.9 0.3-1.9 0.8-2.6-0.7-0.6-2.1-1-3.4-1-2.1 0.1-3.3 0.8-4 2-0.7 1.2-1 3-1 5v5.6h9.1l0.1 0.3q0.4 1 0.4 1.9c0 1.9-1.4 3.4-3.2 3.6-0.7 0-1.4 0-2 0-1.5 0-3-0.1-4.1-0.1v19.4c0 3 0.5 4 1.4 4.8 0.8 0.6 3 1 3.7 1.1h0.1l0.1 0.2q0.4 0.8 0.4 1.5c0 1.3-1.1 2.2-2.7 2.6-1.7 0.5-4.1 0.7-7.1 0.7-3.1 0-5.3-0.2-6.8-0.6zm107.4 0c-1.5-0.5-2.5-1.3-2.5-2.6q0-0.7 0.4-1.6l0.1-0.2h0.2c0.5-0.1 1.5-0.4 2.4-1.1 0.9-0.8 1.2-1.8 1.3-4.8v-14.9c-0.1-2.5-0.7-3.4-2.8-3.4q-0.7 0-1.6 0.2h-0.4l-0.1-0.3q-0.3-0.8-0.3-1.6c0-2.9 3.3-4.5 5.5-5.2 0.9-0.2 1.7-0.4 2.5-0.4 2.9 0 4.6 2.2 5.3 4.9 1.9-3.2 5-5.3 8.1-5.3 2.9 0 5.7 1.9 5.7 5.4 0 2.6-1.8 5.2-4.7 5.2-2.2 0-4.2-1.4-4.6-3.6-1.7 0.6-4.1 2.7-4.1 10v9c0 3 0.4 4 1.2 4.8 0.9 0.6 2.7 1 3.3 1.1h0.2l0.1 0.2q0.4 0.9 0.4 1.7c0 1.2-0.9 2.1-2.3 2.5-1.5 0.4-3.6 0.6-6.5 0.6-2.9 0-5.2-0.2-6.8-0.7zm-76-18.6c0 9.8 4.2 14 8.4 14 4.8 0 8.2-4.2 8.3-12.4 0-4.3-1-7.8-2.5-10.1-1.6-2.3-3.7-3.6-6.2-3.6-4.9 0-8 4.5-8 12.1zm-48-3.8c0.8-0.1 0.9-0.2 1.1-0.4 0.1-0.3 0.2-0.8 0.2-1.4-0.1-3.4-2.8-6.5-6.8-6.5-5.2 0-7.2 4.1-7.6 8.2 0 0 13.1 0 13.1 0.1zm105.4 22c-0.7-0.9-1-2.1-1.3-3.4-0.4 0.4-0.8 0.8-1.5 1.5-2.3 2.2-5.5 3.5-9 3.5-3.8 0-7-1.4-9.1-3.9-3.2-3.8-3.2-8.6-3.2-15.4v-6.6c0-2.7-0.9-3.6-3.3-3.7q-0.5 0-1.1 0.1h-0.3l-0.1-0.3q-0.3-0.7-0.3-1.4c0.1-3.2 4.1-4.9 6.5-5.4 0.8-0.1 1.6-0.2 2.4-0.2 1.9 0 3.3 0.6 4.2 1.7 0.9 1.1 1.3 2.7 1.3 4.5l-0.1 11.2c0 4.2 0.3 7.3 1.2 9.3 1 2 2.4 2.9 5 2.9 2.8 0 4.5-1.2 5.6-3 1.1-1.8 1.5-4.3 1.5-6.6v-9.1c-0.1-2.7-0.9-3.6-3.4-3.7q-0.5 0-1.1 0.1h-0.3l-0.1-0.2q-0.3-0.8-0.3-1.5c0.1-3.2 4.2-4.9 6.5-5.3 0.9-0.2 1.7-0.3 2.4-0.3 1.9 0 3.4 0.6 4.3 1.7 0.9 1.1 1.2 2.7 1.2 4.5 0 1.2-0.1 3.5-0.1 13.1 0 4.1-0.1 6.2 0 6.9 0 2.8 0.9 4 3.5 4q0.4 0 0.9 0h0.3l0.1 0.2q0.3 0.8 0.2 1.4c0 3.2-4.1 4.4-6.4 4.9-0.9 0.1-1.6 0.2-2.3 0.2-1.8 0-3.1-0.6-3.8-1.7zm-207.1-16.1c-4 0-6.6 1.9-6.6 5.5 0 3.5 2.3 5.8 6 5.8 2.4 0 4.8-1.3 6.3-3.2v-5c0-0.7-0.4-1.5-1.4-2.1-1-0.6-2.4-1-4.3-1z"/>
				</g>
			</g>
		</g>
	</g>
</svg>